<svg xmlns="http://www.w3.org/2000/svg" viewBox="0 0 270 270"><defs><style>.cls-1{fill:#f1f5f9;}</style></defs><g id="Layer_2" data-name="Layer 2"><g id="Layer_1-2" data-name="Layer 1"><path class="cls-1" d="M174.8,59.8h-9.54V77.25h9.54c3.33,0,5.79-.76,7.4-2.28a8.4,8.4,0,0,0,2.4-6.4Q184.6,59.8,174.8,59.8Zm0,0h-9.54V77.25h9.54c3.33,0,5.79-.76,7.4-2.28a8.4,8.4,0,0,0,2.4-6.4Q184.6,59.8,174.8,59.8ZM0,0V270H270V0ZM153.23,50h22.09a26.74,26.74,0,0,1,11.86,2.4A16.81,16.81,0,0,1,194.53,59a19.41,19.41,0,0,1,.17,18.57,16.71,16.71,0,0,1-7.13,6.79A26,26,0,0,1,175.32,87H165.26v23h-12Zm0,90.51h11.91v59.4H153.23ZM73.12,50h12v50.46h19.77V110H73.12Zm0,90.21H85V177q0,6,3.15,9.24T97,189.4q5.79,0,8.93-3.19t3.15-9.24V140.21h12v36.68a23.72,23.72,0,0,1-3.27,12.81,20.82,20.82,0,0,1-8.77,7.87,27.81,27.81,0,0,1-12.21,2.64,27,27,0,0,1-12-2.64,20.06,20.06,0,0,1-8.56-7.87,24.43,24.43,0,0,1-3.15-12.81ZM255,247a8,8,0,0,1-8,8H29.35A14.34,14.34,0,0,1,15,240.65V23a8,8,0,0,1,8-8H47a8,8,0,0,1,8,8V207a8,8,0,0,0,8,8H207a8,8,0,0,0,8-8V63a8,8,0,0,1,8-8h24a8,8,0,0,1,8,8Zm0-205a3,3,0,0,1-3,3H218a3,3,0,0,1-3-3V18a3,3,0,0,1,3-3h34a3,3,0,0,1,3,3ZM182.2,75a8.4,8.4,0,0,0,2.4-6.4q0-8.77-9.8-8.77h-9.54V77.25h9.54C178.13,77.25,180.59,76.49,182.2,75ZM174.8,59.8h-9.54V77.25h9.54c3.33,0,5.79-.76,7.4-2.28a8.4,8.4,0,0,0,2.4-6.4Q184.6,59.8,174.8,59.8Zm0,0h-9.54V77.25h9.54c3.33,0,5.79-.76,7.4-2.28a8.4,8.4,0,0,0,2.4-6.4Q184.6,59.8,174.8,59.8Z"/><path class="cls-1" d="M65.31,237.6V227H62.79V239.6h6.66v-2Z"/><path class="cls-1" d="M78.25,229.63v1.42a3.86,3.86,0,0,0-1.34-1.14,4,4,0,0,0-2-.45,4.36,4.36,0,0,0-2.31.63,4.41,4.41,0,0,0-1.64,1.8,5.81,5.81,0,0,0-.6,2.68,5.88,5.88,0,0,0,.6,2.71,4.5,4.5,0,0,0,1.64,1.83,4.24,4.24,0,0,0,2.29.65,4,4,0,0,0,2-.46,3.73,3.73,0,0,0,1.34-1.16v1.46h2.54v-10Zm-.36,6.56a2.61,2.61,0,0,1-2.28,1.36,2.47,2.47,0,0,1-1.29-.37,2.68,2.68,0,0,1-1-1,3.21,3.21,0,0,1-.37-1.58,3.07,3.07,0,0,1,.37-1.55,2.64,2.64,0,0,1,1-1,2.55,2.55,0,0,1,1.3-.34,2.52,2.52,0,0,1,1.31.35,2.49,2.49,0,0,1,1,1,3.2,3.2,0,0,1,.36,1.57A3.26,3.26,0,0,1,77.89,236.19Z"/><path class="cls-1" d="M91.66,230.61a3.84,3.84,0,0,0-2.88-1.13,3.89,3.89,0,0,0-1.71.37,3.35,3.35,0,0,0-1.29,1v-1.24H83.26v10h2.52v-5.51a2.59,2.59,0,0,1,.6-1.83,2.18,2.18,0,0,1,1.65-.64,2.14,2.14,0,0,1,1.62.64,2.63,2.63,0,0,1,.59,1.83v5.51h2.52v-5.85A4.26,4.26,0,0,0,91.66,230.61Z"/><path class="cls-1" d="M102.34,226.28V231a3.68,3.68,0,0,0-1.41-1.12,4.09,4.09,0,0,0-1.85-.43,4.36,4.36,0,0,0-4,2.43,5.81,5.81,0,0,0-.6,2.68,5.88,5.88,0,0,0,.6,2.71,4.45,4.45,0,0,0,1.65,1.83,4.27,4.27,0,0,0,2.3.65,4.08,4.08,0,0,0,2-.45,3.4,3.4,0,0,0,1.32-1.19v1.48h2.55V226.28Zm-.34,9.91a2.55,2.55,0,0,1-1,1,2.5,2.5,0,0,1-2.6,0,2.68,2.68,0,0,1-1-1,3.32,3.32,0,0,1-.37-1.58,3.17,3.17,0,0,1,.37-1.55,2.64,2.64,0,0,1,1-1,2.55,2.55,0,0,1,1.3-.34A2.59,2.59,0,0,1,102,233a3.2,3.2,0,0,1,.36,1.57A3.26,3.26,0,0,1,102,236.19Z"/><path class="cls-1" d="M109.75,225.91a1.57,1.57,0,0,0-1.11-.43,1.56,1.56,0,0,0-1.11.43,1.47,1.47,0,0,0,0,2.1,1.52,1.52,0,0,0,1.11.43,1.53,1.53,0,0,0,1.11-.43,1.47,1.47,0,0,0,0-2.1Zm-2.39,3.72v10h2.52v-10Z"/><path class="cls-1" d="M120.77,230.61a3.84,3.84,0,0,0-2.88-1.13,3.94,3.94,0,0,0-1.72.37,3.51,3.51,0,0,0-1.29,1v-1.24h-2.52v10h2.52v-5.51a2.59,2.59,0,0,1,.61-1.83,2.17,2.17,0,0,1,1.64-.64,2.11,2.11,0,0,1,1.62.64,2.59,2.59,0,0,1,.6,1.83v5.51h2.52v-5.85A4.3,4.3,0,0,0,120.77,230.61Z"/><path class="cls-1" d="M131.46,229.63v1.42a3.66,3.66,0,0,0-1.33-1.15,4.23,4.23,0,0,0-2-.44,4.36,4.36,0,0,0-2.31.63,4.41,4.41,0,0,0-1.64,1.8,5.81,5.81,0,0,0-.61,2.68,5.88,5.88,0,0,0,.61,2.71,4.5,4.5,0,0,0,1.64,1.83,4.33,4.33,0,0,0,2.31.65,4,4,0,0,0,2-.47,3.75,3.75,0,0,0,1.34-1.17v1.55a2.66,2.66,0,0,1-.68,2,2.46,2.46,0,0,1-1.78.65,3,3,0,0,1-1.6-.4,1.87,1.87,0,0,1-.85-1.09h-2.5a3.66,3.66,0,0,0,1.54,2.7,5.74,5.74,0,0,0,3.48,1,5.34,5.34,0,0,0,2.7-.64,4.09,4.09,0,0,0,1.67-1.73,5.35,5.35,0,0,0,.56-2.47v-10Zm-.36,6.56a2.52,2.52,0,0,1-1,1,2.56,2.56,0,0,1-1.31.36,2.47,2.47,0,0,1-1.29-.37,2.61,2.61,0,0,1-1-1,3.21,3.21,0,0,1-.37-1.58,3.07,3.07,0,0,1,.37-1.55,2.5,2.5,0,0,1,1-1,2.64,2.64,0,0,1,2.61,0,2.49,2.49,0,0,1,1,1,3.2,3.2,0,0,1,.36,1.57A3.26,3.26,0,0,1,131.1,236.19Z"/><path class="cls-1" d="M149.4,228.92a3.52,3.52,0,0,0-1.54-1.38,5.51,5.51,0,0,0-2.48-.51h-4.63V239.6h2.52v-4.83h2.11a5.42,5.42,0,0,0,2.56-.54,3.42,3.42,0,0,0,1.49-1.42,4.07,4.07,0,0,0,0-3.89Zm-2.58,3.34a2.2,2.2,0,0,1-1.55.48h-2v-3.65h2c1.37,0,2,.61,2,1.83A1.77,1.77,0,0,1,146.82,232.26Z"/><path class="cls-1" d="M158.89,229.63v1.42a3.86,3.86,0,0,0-1.34-1.14,4.07,4.07,0,0,0-2-.45,4.36,4.36,0,0,0-2.31.63,4.41,4.41,0,0,0-1.64,1.8,5.81,5.81,0,0,0-.6,2.68,5.88,5.88,0,0,0,.6,2.71,4.5,4.5,0,0,0,1.64,1.83,4.24,4.24,0,0,0,2.29.65,4,4,0,0,0,2-.46,3.73,3.73,0,0,0,1.34-1.16v1.46h2.54v-10Zm-.36,6.56a2.61,2.61,0,0,1-2.28,1.36,2.47,2.47,0,0,1-1.29-.37,2.61,2.61,0,0,1-1-1,3.21,3.21,0,0,1-.37-1.58A3.07,3.07,0,0,1,154,233a2.51,2.51,0,0,1,2.26-1.34,2.52,2.52,0,0,1,1.31.35,2.49,2.49,0,0,1,1,1,3.2,3.2,0,0,1,.36,1.57A3.26,3.26,0,0,1,158.53,236.19Z"/><path class="cls-1" d="M171.1,229.63v1.42a3.74,3.74,0,0,0-1.33-1.15,4.27,4.27,0,0,0-2-.44,4.36,4.36,0,0,0-2.31.63,4.41,4.41,0,0,0-1.64,1.8,5.81,5.81,0,0,0-.6,2.68,5.88,5.88,0,0,0,.6,2.71,4.45,4.45,0,0,0,1.65,1.83,4.3,4.3,0,0,0,2.3.65,4,4,0,0,0,2-.47,3.84,3.84,0,0,0,1.34-1.17v1.55a2.63,2.63,0,0,1-.69,2,2.44,2.44,0,0,1-1.78.65,3,3,0,0,1-1.59-.4,1.88,1.88,0,0,1-.86-1.09h-2.5a3.66,3.66,0,0,0,1.54,2.7,5.78,5.78,0,0,0,3.48,1,5.29,5.29,0,0,0,2.7-.64,4.06,4.06,0,0,0,1.68-1.73,5.35,5.35,0,0,0,.56-2.47v-10Zm-.36,6.56a2.61,2.61,0,0,1-2.29,1.36,2.53,2.53,0,0,1-1.29-.37,2.68,2.68,0,0,1-1-1,3.32,3.32,0,0,1-.37-1.58,3.17,3.17,0,0,1,.37-1.55,2.59,2.59,0,0,1,1-1,2.49,2.49,0,0,1,1.29-.34,2.56,2.56,0,0,1,2.29,1.36,3.2,3.2,0,0,1,.36,1.57A3.26,3.26,0,0,1,170.74,236.19Z"/><path class="cls-1" d="M185.37,234.39a5.29,5.29,0,0,0-.62-2.58,4.31,4.31,0,0,0-1.75-1.74,5.66,5.66,0,0,0-5.15,0,4.39,4.39,0,0,0-1.77,1.8,6.1,6.1,0,0,0,0,5.42,4.56,4.56,0,0,0,1.78,1.81,5.21,5.21,0,0,0,2.59.64,4.79,4.79,0,0,0,3-.93,4.55,4.55,0,0,0,1.66-2.37H182.4a2,2,0,0,1-2,1.21,2.31,2.31,0,0,1-1.63-.61,2.46,2.46,0,0,1-.76-1.69h7.29A5.86,5.86,0,0,0,185.37,234.39Zm-7.34-.72a2.44,2.44,0,0,1,.78-1.57,2.29,2.29,0,0,1,1.58-.57,2.49,2.49,0,0,1,1.67.59,2,2,0,0,1,.7,1.55Z"/><path class="cls-1" d="M199.07,227v7.78a2.64,2.64,0,0,1-.67,1.95,2.94,2.94,0,0,1-3.76,0,2.68,2.68,0,0,1-.66-1.95V227h-2.52v7.76a5.21,5.21,0,0,0,.66,2.71,4.35,4.35,0,0,0,1.81,1.67,5.75,5.75,0,0,0,2.55.55,5.88,5.88,0,0,0,2.58-.55,4.45,4.45,0,0,0,1.85-1.67,4.94,4.94,0,0,0,.7-2.71V227Z"/><path class="cls-1" d="M204,227V239.6h2.52V227Z"/></g></g></svg>