<?xml version="1.0" encoding="UTF-8"?>
<svg id="Layer_2" data-name="Layer 2" xmlns="http://www.w3.org/2000/svg" viewBox="0 0 201 201">
  <defs>
    <style>
      .cls-1 {
        fill: #f1f5f9;
      }

      .cls-2 {
        fill: #6fb8e6;
      }

      .cls-3 {
        fill: none;
        stroke: #10182a;
        stroke-miterlimit: 10;
      }
    </style>
  </defs>
  <g id="Layer_1-2" data-name="Layer 1">
    
    <g>
      <path class="cls-1" d="m36.89,50.1v70.36c0,7.71,2.01,13.6,6.03,17.67,4.02,4.07,9.66,6.11,16.94,6.11s13.08-2.04,17.1-6.11c4.02-4.07,6.03-9.96,6.03-17.67V50.1h22.96v70.19c0,9.67-2.09,17.83-6.27,24.51-4.18,6.68-9.77,11.7-16.77,15.06-7,3.37-14.79,5.05-23.37,5.05s-16.15-1.68-23.04-5.05c-6.9-3.37-12.35-8.39-16.37-15.06-4.02-6.68-6.03-14.85-6.03-24.51V50.1h22.8Z"/>
      <path class="cls-1" d="m129.48,58.97c-2.66-2.55-3.99-5.72-3.99-9.53s1.33-6.97,3.99-9.53c2.66-2.55,6-3.83,10.02-3.83s7.35,1.28,10.02,3.83c2.66,2.55,3.99,5.73,3.99,9.53s-1.33,6.98-3.99,9.53c-2.66,2.55-6,3.83-10.02,3.83s-7.36-1.28-10.02-3.83Z"/>
      <path class="cls-2" d="m162.89,159.94c-2.66-2.55-3.99-5.72-3.99-9.53s1.33-6.97,3.99-9.53c2.66-2.55,6-3.83,10.02-3.83s7.35,1.28,10.02,3.83c2.66,2.55,3.99,5.73,3.99,9.53s-1.33,6.98-3.99,9.53c-2.66,2.55-6,3.83-10.02,3.83s-7.36-1.28-10.02-3.83Z"/>
      <rect class="cls-1" x="127.93" y="73.55" width="22.8" height="90.22"/>
    </g>
  </g>
</svg>